<?xml version="1.0" encoding="UTF-8" standalone="no"?>
<!-- Generator: Adobe Illustrator 16.0.0, SVG Export Plug-In . SVG Version: 6.00 Build 0)  -->

<svg
   xmlns:dc="http://purl.org/dc/elements/1.1/"
   xmlns:cc="http://creativecommons.org/ns#"
   xmlns:rdf="http://www.w3.org/1999/02/22-rdf-syntax-ns#"
   xmlns:svg="http://www.w3.org/2000/svg"
   xmlns="http://www.w3.org/2000/svg"
   xmlns:sodipodi="http://sodipodi.sourceforge.net/DTD/sodipodi-0.dtd"
   xmlns:inkscape="http://www.inkscape.org/namespaces/inkscape"
   version="1.1"
   id="Capa_1"
   x="0px"
   y="0px"
   width="19.920984"
   height="18.261185"
   viewBox="0 0 19.920984 18.261185"
   xml:space="preserve"
   sodipodi:docname="empty-folder.svg"
   inkscape:version="0.92.3 (2405546, 2018-03-11)"><metadata
   id="metadata90"><rdf:RDF><cc:Work
       rdf:about=""><dc:format>image/svg+xml</dc:format><dc:type
         rdf:resource="http://purl.org/dc/dcmitype/StillImage" /><dc:title></dc:title></cc:Work></rdf:RDF></metadata><defs
   id="defs88" /><sodipodi:namedview
   pagecolor="#ffffff"
   bordercolor="#666666"
   borderopacity="1"
   objecttolerance="10"
   gridtolerance="10"
   guidetolerance="10"
   inkscape:pageopacity="0"
   inkscape:pageshadow="2"
   inkscape:window-width="1920"
   inkscape:window-height="1017"
   id="namedview86"
   showgrid="false"
   fit-margin-top="0"
   fit-margin-left="0"
   fit-margin-right="0"
   fit-margin-bottom="0"
   inkscape:zoom="14.833529"
   inkscape:cx="23.754784"
   inkscape:cy="21.940382"
   inkscape:window-x="1912"
   inkscape:window-y="-8"
   inkscape:window-maximized="1"
   inkscape:current-layer="Capa_1" />

<g
   id="g292"
   transform="matrix(0.43991507,0,0,0.43991507,0.10671854,0.74907974)"><g
     id="g236">
	<path
   id="path234"
   d="m 25.186,28.1 c -0.987,1.211 -2.427,1.838 -3.875,1.838 -1.112,0 -2.231,-0.369 -3.159,-1.127 -2.139,-1.746 -2.457,-4.896 -0.71,-7.036 0.988,-1.21 2.426,-1.837 3.876,-1.837 1.112,0 2.231,0.369 3.162,1.127 2.133,1.747 2.454,4.896 0.706,7.035 z m 19.753,-12.558 -5,22.5 C 39.688,39.186 38.671,40 37.5,40 h -5 -25 -5 C 1.119,40 0,38.881 0,37.5 V 7.5 C 0,6.119 1.119,5 2.5,5 h 30 C 33.881,5 35,6.119 35,7.5 V 10 h 2.5 c 1.381,0 2.5,1.119 2.5,2.5 h 2.5 c 0.758,0 1.477,0.344 1.95,0.936 0.475,0.591 0.655,1.366 0.489,2.106 z M 12.5,12.5 h 15 C 27.5,11.119 28.619,10 30,10 h 2.5 V 7.5 h -30 v 30 h 2.502 c 0,-0.182 5.058,-23.042 5.058,-23.042 0.253,-1.144 1.268,-1.958 2.44,-1.958 z m 20.654,20.48 -3.945,-3.222 c -0.344,-0.28 -0.771,-0.378 -1.178,-0.315 l -0.459,-0.375 c 0.953,-1.438 1.378,-3.146 1.201,-4.885 -0.2,-1.994 -1.166,-3.789 -2.717,-5.057 -1.336,-1.09 -3.021,-1.691 -4.743,-1.691 -2.263,0 -4.382,1.004 -5.813,2.756 -2.616,3.205 -2.138,7.938 1.065,10.554 1.335,1.09 3.019,1.689 4.741,1.689 1.843,0 3.583,-0.675 4.94,-1.867 l 0.521,0.424 c 0.02,0.408 0.199,0.81 0.543,1.09 l 3.944,3.221 c 0.279,0.229 0.614,0.34 0.948,0.34 0.436,0 0.865,-0.188 1.163,-0.553 0.528,-0.639 0.431,-1.584 -0.211,-2.109 z"
   inkscape:connector-curvature="0" />
</g><g
     id="g238">
</g><g
     id="g240">
</g><g
     id="g242">
</g><g
     id="g244">
</g><g
     id="g246">
</g><g
     id="g248">
</g><g
     id="g250">
</g><g
     id="g252">
</g><g
     id="g254">
</g><g
     id="g256">
</g><g
     id="g258">
</g><g
     id="g260">
</g><g
     id="g262">
</g><g
     id="g264">
</g><g
     id="g266">
</g></g><g
   id="g55"
   transform="translate(-0.13482968,-25.605379)">
</g>
<g
   id="g57"
   transform="translate(-0.13482968,-25.605379)">
</g>
<g
   id="g59"
   transform="translate(-0.13482968,-25.605379)">
</g>
<g
   id="g61"
   transform="translate(-0.13482968,-25.605379)">
</g>
<g
   id="g63"
   transform="translate(-0.13482968,-25.605379)">
</g>
<g
   id="g65"
   transform="translate(-0.13482968,-25.605379)">
</g>
<g
   id="g67"
   transform="translate(-0.13482968,-25.605379)">
</g>
<g
   id="g69"
   transform="translate(-0.13482968,-25.605379)">
</g>
<g
   id="g71"
   transform="translate(-0.13482968,-25.605379)">
</g>
<g
   id="g73"
   transform="translate(-0.13482968,-25.605379)">
</g>
<g
   id="g75"
   transform="translate(-0.13482968,-25.605379)">
</g>
<g
   id="g77"
   transform="translate(-0.13482968,-25.605379)">
</g>
<g
   id="g79"
   transform="translate(-0.13482968,-25.605379)">
</g>
<g
   id="g81"
   transform="translate(-0.13482968,-25.605379)">
</g>
<g
   id="g83"
   transform="translate(-0.13482968,-25.605379)">
</g>
</svg>