<?xml version="1.0" encoding="UTF-8" standalone="no"?>
<!-- Generator: Adobe Illustrator 16.0.0, SVG Export Plug-In . SVG Version: 6.00 Build 0)  -->

<svg
   xmlns:dc="http://purl.org/dc/elements/1.1/"
   xmlns:cc="http://creativecommons.org/ns#"
   xmlns:rdf="http://www.w3.org/1999/02/22-rdf-syntax-ns#"
   xmlns:svg="http://www.w3.org/2000/svg"
   xmlns="http://www.w3.org/2000/svg"
   xmlns:sodipodi="http://sodipodi.sourceforge.net/DTD/sodipodi-0.dtd"
   xmlns:inkscape="http://www.inkscape.org/namespaces/inkscape"
   version="1.1"
   id="Capa_1"
   x="0px"
   y="0px"
   width="19.920984"
   height="18.261185"
   viewBox="0 0 19.920984 18.261185"
   xml:space="preserve"
   sodipodi:docname="search-in-folder.svg"
   inkscape:version="0.92.3 (2405546, 2018-03-11)"><metadata
   id="metadata90"><rdf:RDF><cc:Work
       rdf:about=""><dc:format>image/svg+xml</dc:format><dc:type
         rdf:resource="http://purl.org/dc/dcmitype/StillImage" /><dc:title></dc:title></cc:Work></rdf:RDF></metadata><defs
   id="defs88" /><sodipodi:namedview
   pagecolor="#ffffff"
   bordercolor="#666666"
   borderopacity="1"
   objecttolerance="10"
   gridtolerance="10"
   guidetolerance="10"
   inkscape:pageopacity="0"
   inkscape:pageshadow="2"
   inkscape:window-width="1920"
   inkscape:window-height="1017"
   id="namedview86"
   showgrid="false"
   fit-margin-top="0"
   fit-margin-left="0"
   fit-margin-right="0"
   fit-margin-bottom="0"
   inkscape:zoom="14.833529"
   inkscape:cx="23.754784"
   inkscape:cy="21.940382"
   inkscape:window-x="1912"
   inkscape:window-y="-8"
   inkscape:window-maximized="1"
   inkscape:current-layer="Capa_1" />
<g
   id="g53"
   transform="matrix(0.44269537,0,0,0.44269537,0,-0.83005382)">
	<path
   d="m 26.083,7.417 c 0,0.69 -0.56,1.25 -1.25,1.25 H 9.917 c -0.69,0 -1.25,-0.56 -1.25,-1.25 0,-0.69 0.56,-1.25 1.25,-1.25 h 14.916 c 0.69,0 1.25,0.56 1.25,1.25 z m -1.25,3.833 H 9.917 c -0.69,0 -1.25,0.56 -1.25,1.25 0,0.69 0.56,1.25 1.25,1.25 h 14.916 c 0.69,0 1.25,-0.56 1.25,-1.25 0,-0.69 -0.56,-1.25 -1.25,-1.25 z m 20.106,7.417 -5,22.5 c -0.254,1.144 -1.27,1.958 -2.439,1.958 h -5 -25 -5 c -1.381,0 -2.5,-1.119 -2.5,-2.5 v -30 c 0,-1.381 1.119,-2.5 2.5,-2.5 h 1.25 v -5 c 0,-0.69 0.559,-1.25 1.25,-1.25 h 25 c 0.689,0 1.25,0.56 1.25,1.25 v 5 h 1.25 c 1.381,0 2.5,1.119 2.5,2.5 v 2.5 h 2.5 c 1.381,0 2.5,1.119 2.5,2.5 h 2.5 c 0.758,0 1.477,0.344 1.949,0.936 0.475,0.591 0.656,1.366 0.49,2.106 z M 3.75,10.625 H 2.5 v 30 h 1.25 z m 27.5,2.5 h 1.25 v -2.5 h -1.25 z m -18.75,2.5 h 15 c 0,-1.381 1.119,-2.5 2.5,-2.5 v -10 H 5 v 37.5 h 0.002 c 0,-0.182 5.057,-23.042 5.057,-23.042 0.254,-1.144 1.27,-1.958 2.441,-1.958 z M 34.445,36.346 30.5,33.125 c -0.344,-0.28 -0.771,-0.378 -1.178,-0.316 l -0.459,-0.375 c 0.951,-1.438 1.377,-3.146 1.201,-4.885 -0.201,-1.992 -1.166,-3.789 -2.717,-5.056 -1.338,-1.09 -3.021,-1.691 -4.743,-1.691 -2.263,0 -4.381,1.004 -5.813,2.757 -2.615,3.202 -2.137,7.938 1.066,10.553 1.335,1.092 3.019,1.691 4.74,1.691 1.843,0 3.582,-0.675 4.939,-1.867 l 0.52,0.422 c 0.021,0.41 0.2,0.812 0.545,1.092 l 3.942,3.221 c 0.279,0.229 0.615,0.338 0.948,0.338 0.436,0 0.865,-0.188 1.162,-0.551 0.531,-0.644 0.433,-1.588 -0.208,-2.112 z M 25.768,24.43 c -0.931,-0.758 -2.05,-1.127 -3.161,-1.127 -1.449,0 -2.887,0.627 -3.875,1.838 -1.747,2.14 -1.429,5.289 0.71,7.035 0.929,0.758 2.048,1.127 3.159,1.127 1.448,0 2.887,-0.627 3.875,-1.838 1.749,-2.139 1.428,-5.288 -0.708,-7.035 z"
   id="path51"
   inkscape:connector-curvature="0" />
</g>
<g
   id="g55"
   transform="translate(-0.13482968,-25.605379)">
</g>
<g
   id="g57"
   transform="translate(-0.13482968,-25.605379)">
</g>
<g
   id="g59"
   transform="translate(-0.13482968,-25.605379)">
</g>
<g
   id="g61"
   transform="translate(-0.13482968,-25.605379)">
</g>
<g
   id="g63"
   transform="translate(-0.13482968,-25.605379)">
</g>
<g
   id="g65"
   transform="translate(-0.13482968,-25.605379)">
</g>
<g
   id="g67"
   transform="translate(-0.13482968,-25.605379)">
</g>
<g
   id="g69"
   transform="translate(-0.13482968,-25.605379)">
</g>
<g
   id="g71"
   transform="translate(-0.13482968,-25.605379)">
</g>
<g
   id="g73"
   transform="translate(-0.13482968,-25.605379)">
</g>
<g
   id="g75"
   transform="translate(-0.13482968,-25.605379)">
</g>
<g
   id="g77"
   transform="translate(-0.13482968,-25.605379)">
</g>
<g
   id="g79"
   transform="translate(-0.13482968,-25.605379)">
</g>
<g
   id="g81"
   transform="translate(-0.13482968,-25.605379)">
</g>
<g
   id="g83"
   transform="translate(-0.13482968,-25.605379)">
</g>
</svg>